HIERARCHY
ROOT root
{
	OFFSET 0.000000 0.000000 0.000000
	CHANNELS 6 Xposition Yposition Zposition Zrotation Yrotation Xrotation
	JOINT lhip
	{
		OFFSET 0.058581 -0.082280 -0.017664
		CHANNELS 3 Zrotation Yrotation Xrotation
		JOINT lknee
		{
			OFFSET 0.043451 -0.386469 0.008037
			CHANNELS 3 Zrotation Yrotation Xrotation
			JOINT lankle
			{
				OFFSET -0.014790 -0.426874 -0.037428
				CHANNELS 3 Zrotation Yrotation Xrotation
				JOINT ltoe
				{
					OFFSET 0.041054 -0.060286 0.122042
					CHANNELS 3 Zrotation Yrotation Xrotation
					End Site
					{
						OFFSET 0.000000 0.000000 0.000000
					}
				}
			}
		}
	}
	JOINT rhip
	{
		OFFSET -0.060310 -0.090513 -0.013543
		CHANNELS 3 Zrotation Yrotation Xrotation
		JOINT rknee
		{
			OFFSET -0.043257 -0.383688 -0.004843
			CHANNELS 3 Zrotation Yrotation Xrotation
			JOINT rankle
			{
				OFFSET 0.019056 -0.420046 -0.034562
				CHANNELS 3 Zrotation Yrotation Xrotation
				JOINT rtoe
				{
					OFFSET -0.034840 -0.062106 0.130323
					CHANNELS 3 Zrotation Yrotation Xrotation
					End Site
					{
						OFFSET 0.000000 0.000000 0.000000
					}
				}
			}
		}
	}
	JOINT lowerback
	{
		OFFSET 0.004439 0.124404 -0.038385
		CHANNELS 3 Zrotation Yrotation Xrotation
		JOINT upperback
		{
			OFFSET 0.004488 0.137956 0.026820
			CHANNELS 3 Zrotation Yrotation Xrotation
			JOINT chest
			{
				OFFSET -0.002265 0.056032 0.002855
				CHANNELS 3 Zrotation Yrotation Xrotation
				JOINT lowerneck
				{
					OFFSET -0.013390 0.211636 -0.033468
					CHANNELS 3 Zrotation Yrotation Xrotation
					JOINT upperneck
					{
						OFFSET 0.010113 0.088937 0.050410
						CHANNELS 3 Zrotation Yrotation Xrotation
						End Site
						{
							OFFSET 0.000000 0.000000 0.000000
						}
					}
				}
				JOINT lclavicle
				{
					OFFSET 0.071702 0.114000 -0.018898
					CHANNELS 3 Zrotation Yrotation Xrotation
					JOINT lshoulder
					{
						OFFSET 0.122921 0.045205 -0.019046
						CHANNELS 3 Zrotation Yrotation Xrotation
						JOINT lelbow
						{
							OFFSET 0.255332 -0.015649 -0.022946
							CHANNELS 3 Zrotation Yrotation Xrotation
							JOINT lwrist
							{
								OFFSET 0.265709 0.012698 -0.007375
								CHANNELS 3 Zrotation Yrotation Xrotation
								End Site
								{
									OFFSET 0.000000 0.000000 0.000000
								}
							}
						}
					}
				}
				JOINT rclavicle
				{
					OFFSET -0.082954 0.112472 -0.023707
					CHANNELS 3 Zrotation Yrotation Xrotation
					JOINT rshoulder
					{
						OFFSET -0.113228 0.046853 -0.008472
						CHANNELS 3 Zrotation Yrotation Xrotation
						JOINT relbow
						{
							OFFSET -0.260127 -0.014369 -0.031269
							CHANNELS 3 Zrotation Yrotation Xrotation
							JOINT rwrist
							{
								OFFSET -0.269108 0.006794 -0.006027
								CHANNELS 3 Zrotation Yrotation Xrotation
								End Site
								{
									OFFSET 0.000000 0.000000 0.000000
								}
							}
						}
					}
				}
			}
		}
	}
}
MOTION
Frames: 7
Frame Time: 0.033333
-1.721470 0.325568 1.024294 85.584140 -4.727304 93.325308 0.962247 -11.518966 -30.365351 -3.333688 5.341600 13.752861 2.867825 7.870320 -8.113273 0.000000 -0.000000 0.000000 -1.865003 -3.628812 23.880888 -3.524032 11.492918 32.372048 13.234603 -5.233250 20.240445 0.000000 -0.000000 0.000000 -4.291109 11.234571 10.796099 -1.497455 -2.951706 1.473611 -1.133579 1.499529 0.785155 0.142873 -5.015948 -21.176013 2.262922 3.772442 -3.595729 -27.785677 9.719273 4.691513 -55.459128 12.411834 10.940577 -164.564759 -75.301226 -176.888486 28.500971 -11.521498 -14.138722 23.034967 6.443920 -1.413875 55.272973 10.105377 21.400649 -154.472707 70.900223 -138.020146 -15.645009 21.253547 0.510237 
-1.603773 0.326680 1.013068 87.733688 -4.577175 92.046246 -2.821758 -9.632631 -26.448748 -2.799747 5.529584 11.589874 1.547693 9.608938 -7.846775 0.000000 -0.000000 0.000000 -0.801767 -4.060303 19.147885 -4.538403 7.124063 51.078822 13.242138 -6.874369 26.337567 0.000000 -0.000000 0.000000 -4.459651 8.666171 12.350883 -1.718139 -2.385626 2.168532 -1.061161 1.692323 0.756756 0.616996 -6.648438 -21.190750 3.663251 5.904877 -5.620914 -29.681615 7.701172 3.341803 -54.303240 10.110026 11.570913 -169.016618 -75.019482 -173.499266 27.547764 -12.149461 -12.437600 23.983983 5.909579 -1.391876 53.903802 5.369582 20.691136 -151.184676 77.443157 -136.753879 -11.581461 22.859035 0.867878 
-1.490176 0.324975 0.989904 88.224043 -5.180450 90.155342 -3.615033 -11.309577 -22.834734 -6.722377 3.590509 17.636551 10.907245 10.513815 -13.502043 0.000000 -0.000000 0.000000 -1.716037 -2.581278 12.762869 -4.383547 3.760219 71.408709 9.932758 -12.104878 26.354429 0.000000 -0.000000 0.000000 -6.180221 8.017659 15.207819 -1.305181 -1.329782 0.564516 -0.831124 0.926840 1.485862 1.503843 -7.706533 -18.726823 3.966402 7.185090 -6.023663 -30.119745 4.959944 3.687707 -53.749851 4.758567 13.715439 -177.158628 -74.803713 -167.655610 28.639669 -10.906136 -12.761996 23.685732 5.164775 -1.964240 55.947185 1.129028 22.485302 -102.913163 81.226971 -91.870098 -8.388952 17.337827 4.704117 
-1.348899 0.326838 0.952008 92.578617 -4.647310 88.326471 -6.172120 -10.897253 -22.284419 -7.010685 4.317234 37.252535 17.781481 14.580285 -27.519269 0.000000 -0.000000 0.000000 -2.309324 -2.830573 2.579259 -4.869243 -0.168286 93.429840 5.321687 -15.907961 21.813934 0.000000 -0.000000 0.000000 -5.797683 5.092606 18.466946 -0.495150 -2.473930 -1.221628 -1.110585 -0.136929 2.961855 0.993982 -8.127059 -16.733309 4.801078 8.602257 -5.177257 -31.510744 -0.289398 2.839990 -50.679293 -2.327233 15.626653 178.141724 -71.370861 -164.646584 29.212048 -9.108515 -14.768284 26.207377 4.233094 -0.937815 54.688621 -3.799152 21.629276 -61.931232 77.301541 -52.823681 -9.474363 17.943464 10.659750 
-1.267084 0.327142 0.940286 94.271657 -4.237103 86.678002 -7.537492 -10.861073 -16.323723 -7.586070 1.480737 40.193559 17.977721 18.090563 -32.924993 0.000000 -0.000000 0.000000 -2.743395 -2.204689 -4.795577 -4.016560 -1.549412 102.104322 4.511219 -16.611715 18.699614 0.000000 -0.000000 0.000000 -5.442026 3.868148 22.235015 0.133683 -2.634122 -1.094504 -1.209652 -0.684593 3.143720 0.595809 -6.483452 -18.805813 4.382974 6.870495 -5.839173 -32.196894 -4.108645 0.691266 -48.735184 -8.664219 16.891276 176.498381 -70.319346 -163.218154 31.489133 -9.249764 -13.419074 28.345641 3.301571 -1.115667 53.897299 -7.657495 21.159920 -63.821913 74.402753 -53.477426 -10.409418 17.451897 13.981605 
-1.156254 0.325822 0.940418 95.994333 -2.317296 85.376291 -7.873353 -6.804289 -5.670478 -6.649699 -4.619357 38.505637 16.259157 19.578751 -37.716438 0.000000 -0.000000 0.000000 -2.096441 -0.739094 -16.288659 -4.016104 -3.950051 107.749359 6.194718 -15.901289 9.170082 0.000000 -0.000000 0.000000 -4.383570 0.451748 25.616916 0.646271 -1.894647 -1.666814 -0.547623 -1.910620 2.706246 -0.410047 -3.961002 -17.471837 3.238695 7.032923 -8.364118 -31.865435 -7.371881 -0.853071 -48.177646 -16.522018 16.898576 173.517856 -68.512728 -159.392101 30.327220 -11.070329 -11.563093 28.853742 1.339218 -0.999825 53.924698 -12.104442 19.259812 -61.710609 74.265353 -51.406334 -12.574101 19.102317 11.636311 
-1.043527 0.323065 0.957456 99.875316 0.460418 85.601123 -4.219932 -2.094649 4.764853 -6.434554 -13.427583 33.108253 11.563647 17.288204 -36.197762 0.000000 -0.000000 0.000000 -1.813724 -0.680756 -26.167218 -5.428230 -7.635839 103.664969 5.648805 -14.091910 8.103767 0.000000 -0.000000 0.000000 -2.863924 -5.731045 27.191623 1.388354 -2.181250 -2.919093 0.211312 -3.625070 2.546466 -1.444816 -1.858686 -17.642821 3.057577 8.497995 -6.965266 -29.916769 -8.039140 -2.223703 -49.365317 -22.388178 15.157704 171.731004 -65.995147 -153.490742 29.068911 -12.458890 -11.524137 27.219932 -0.877366 -0.768318 54.525957 -14.819810 17.593290 -55.418546 77.002713 -43.337473 -13.602904 19.423467 6.993559 
